PathFileType	4	(X/Y/Z)	/Users/itak/Documents/Research/Walk-IL/dataset/trc/00349_00011.trc
DataRate	CameraRate	NumFrames	NumMarkers	Units	OrigDataRate	OrigDataStartFrame	OrigNumFrames
100.000000	100.000000	4	59	mm	100.000000	245	654
Frame#	Time	RPSI			LPSI			L3			STRN			T10			C7			CLAV			RBAK			LBAK			LSHO			LUPA			LAEL			LAOL			LWTS			LWPS			LFRA			LIFD			LHPS			LHTS			RSHO			RUPA			RAEL			RAOL			RWTS			RWPS			RFRA			RHTS			RHPS			RBHD			LFHD			RFHD			LBHD			RASI			LASI			LKNE			LTHI			LANK			LTIP			LTOE			LMT1			LMT5			LHEE			RKNE			RANK			RTIP			RTOE			RMT1			RMT5			RHEE			RIFD			LHIP			RTHI			RHIP			*53			*54			*55			*56			*57			*58			
		X1	Y1	Z1	X2	Y2	Z2	X3	Y3	Z3	X4	Y4	Z4	X5	Y5	Z5	X6	Y6	Z6	X7	Y7	Z7	X8	Y8	Z8	X9	Y9	Z9	X10	Y10	Z10	X11	Y11	Z11	X12	Y12	Z12	X13	Y13	Z13	X14	Y14	Z14	X15	Y15	Z15	X16	Y16	Z16	X17	Y17	Z17	X18	Y18	Z18	X19	Y19	Z19	X20	Y20	Z20	X21	Y21	Z21	X22	Y22	Z22	X23	Y23	Z23	X24	Y24	Z24	X25	Y25	Z25	X26	Y26	Z26	X27	Y27	Z27	X28	Y28	Z28	X29	Y29	Z29	X30	Y30	Z30	X31	Y31	Z31	X32	Y32	Z32	X33	Y33	Z33	X34	Y34	Z34	X35	Y35	Z35	X36	Y36	Z36	X37	Y37	Z37	X38	Y38	Z38	X39	Y39	Z39	X40	Y40	Z40	X41	Y41	Z41	X42	Y42	Z42	X43	Y43	Z43	X44	Y44	Z44	X45	Y45	Z45	X46	Y46	Z46	X47	Y47	Z47	X48	Y48	Z48	X49	Y49	Z49	X50	Y50	Z50	X51	Y51	Z51	X52	Y52	Z52	X53	Y53	Z53	X54	Y54	Z54	X55	Y55	Z55	X56	Y56	Z56	X57	Y57	Z57	X58	Y58	Z58	X59	Y59	Z59	

246	2.45	-428.8975524902344	959.376220703125	22.06204414367676	-537.8026733398438	967.8739624023438	-48.28800964355469	-476.6810302734375	1023.838989257812	-9.029073715209961	-346.3729248046875	1212.861083984375	-200.6457824707031	-484.6754455566406	1144.587524414062	-4.073364734649658	-468.3245239257812	1393.468627929688	-43.17258834838867	-372.7226867675781	1338.276489257812	-165.2101593017578	-444.5250854492188	1251.999145507812	32.84062194824219	-557.2689208984375	1360.08447265625	-92.27272796630859	-552.8443603515625	1376.536376953125	-194.0667266845703	-626.5809936523438	1262.337036132812	-207.7650451660156	-652.77001953125	1060.901245117188	-205.8547058105469	-630.0681762695312	1052.400390625	-124.5540924072266	-598.047119140625	806.0948486328125	-249.2482452392578	-667.0773315429688	803.9053344726562	-239.6710357666016	-665.3232421875	956.0100708007812	-213.2996978759766	-602.1737060546875	647.046875	-229.2858581542969	-671.7677612304688	734.0958862304688	-227.0479431152344	-615.5039672851562	727.3095092773438	-259.0782165527344	-307.2273864746094	1378.972045898438	11.22754573822021	-265.4157409667969	1311.797241210938	57.40835952758789	-218.4418029785156	1045.113403320312	58.33488082885742	-308.6714172363281	1034.12060546875	36.80350494384766	-162.5024261474609	881.1370849609375	-125.4544830322266	-126.9346313476562	844.0881958007812	-68.69095611572266	-189.0613555908203	985.9334106445312	28.81754302978516	-119.670036315918	800.8140869140625	-179.6566009521484	-108.7739868164062	774.0200805664062	-116.217903137207	-374.3715209960938	1592.51513671875	-21.37685012817383	-348.4178466796875	1612.292602539062	-227.3926086425781	-280.1253356933594	1607.1240234375	-153.2755126953125	-490.0152893066406	1595.354614257812	-108.3179779052734	-269.2995910644531	928.26806640625	-96.32914733886719	-457.16064453125	948.1142578125	-244.8807067871094	-494.58056640625	503.0225524902344	-364.494873046875	-518.1290283203125	628.5446166992188	-330.3782348632812	-665.56494140625	120.6177444458008	-228.6642150878906	-587.7081909179688	304.5211486816406	-309.3734741210938	-533.5021362304688	51.50810623168945	-381.0225219726562	-527.37744140625	49.69136047363281	-299.0500183105469	-627.8878173828125	83.16627502441406	-341.815185546875	-621.9814453125	112.6188812255859	-166.1995697021484	-371.7122192382812	435.6050109863281	-82.61300659179688	-513.35546875	49.81507873535156	-56.03160095214844	-407.5749816894531	319.3911437988281	-104.5655288696289	-461.6230163574219	43.02458190917969	-249.4790954589844	-526.1405639648438	39.08683013916016	-223.0119171142578	-447.3437194824219	39.13019561767578	-133.6826019287109	-579.99755859375	53.0548095703125	-38.16347122192383	-124.5108413696289	729.8624267578125	-200.8187561035156	-576.62255859375	925.0021362304688	-184.1681365966797	-292.0337219238281	682.1926879882812	-72.14131927490234	-298.6778564453125	894.8291015625	14.02821254730225	nan	nan	nan	nan	nan	nan	nan	nan	nan	nan	nan	nan	nan	nan	nan	nan	nan	nan	
247	2.46	-428.5253295898438	959.1987915039062	15.37984848022461	-535.66943359375	967.8812866210938	-57.84260559082031	-475.3373718261719	1023.592651367188	-16.43060874938965	-340.8647155761719	1212.128051757812	-205.9775390625	-482.9229736328125	1144.346313476562	-11.33842945098877	-465.2779541015625	1393.101806640625	-50.9040641784668	-367.7429809570312	1337.645385742188	-171.1447143554688	-442.8834533691406	1251.807495117188	25.78428840637207	-553.4954833984375	1359.777221679688	-101.4399185180664	-547.3412475585938	1375.961547851562	-203.1252136230469	-621.2938842773438	1262.166748046875	-217.3052978515625	-648.5733642578125	1060.830078125	-214.5797271728516	-627.3424072265625	1052.89453125	-132.8387145996094	-593.697265625	805.797607421875	-255.8138885498047	-662.8867797851562	803.6842041015625	-247.3693542480469	-661.3783569335938	955.8847045898438	-221.6540679931641	-598.9710693359375	647.0050659179688	-236.1336822509766	-667.917236328125	733.9327392578125	-234.7620239257812	-611.1102905273438	727.0805053710938	-265.8830261230469	-305.1310424804688	1378.616943359375	6.213882446289062	-263.8588256835938	1311.323852539062	52.82098388671875	-214.9235229492188	1044.825927734375	52.70893859863281	-304.8954772949219	1033.433227539062	30.67806434631348	-156.9879302978516	883.3928833007812	-132.6001434326172	-121.2070999145508	846.0510864257812	-76.14727020263672	-184.9298858642578	986.2802124023438	22.7204418182373	-113.2050323486328	804.0487670898438	-187.5987091064453	-102.0644912719727	776.8506469726562	-124.4827194213867	-371.9278259277344	1591.985961914062	-27.54914855957031	-342.9134216308594	1612.046752929688	-233.1497802734375	-275.721435546875	1606.97509765625	-158.0104217529297	-486.1889038085938	1594.561279296875	-116.256591796875	-264.9664306640625	928.5038452148438	-100.2841644287109	-450.6578369140625	947.7017211914062	-251.9998321533203	-484.4724426269531	502.5240478515625	-372.3807983398438	-509.2029724121094	628.240478515625	-338.5191650390625	-650.0504760742188	110.8315658569336	-259.1528930664062	-574.5821533203125	299.9839172363281	-328.6626892089844	-510.4297485351562	52.45592498779297	-409.1056518554688	-507.6146545410156	46.75543594360352	-327.0258483886719	-606.9752197265625	79.89468383789062	-372.2750854492188	-608.7111206054688	100.8726272583008	-195.4150848388672	-370.0504150390625	435.2264099121094	-85.13043212890625	-513.35595703125	49.91062545776367	-56.09278869628906	-406.4255065917969	318.9047241210938	-106.60205078125	-461.7002258300781	42.87167358398438	-249.4720306396484	-526.1797485351562	38.95234298706055	-223.0296783447266	-447.3444213867188	39.12382125854492	-133.7113037109375	-579.9558715820312	53.43084716796875	-38.21208953857422	-117.3333435058594	733.2608032226562	-209.4982452392578	-571.4959716796875	924.7898559570312	-194.0643615722656	-289.96826171875	682.0413818359375	-74.19557189941406	-298.2008666992188	894.4242553710938	10.0216817855835	nan	nan	nan	nan	nan	nan	nan	nan	nan	nan	nan	nan	nan	nan	nan	nan	nan	nan	
248	2.47	-427.990234375	958.990966796875	8.530489921569824	-533.3902587890625	967.7887573242188	-67.3328857421875	-473.8742980957031	1023.298706054688	-23.90318870544434	-335.3336791992188	1211.302734375	-211.2674255371094	-481.0707702636719	1144.00732421875	-18.58757019042969	-462.1517944335938	1392.636962890625	-58.61859893798828	-362.6613159179688	1336.946166992188	-177.0566253662109	-441.1614074707031	1251.506469726562	18.69144058227539	-549.6293334960938	1359.380004882812	-110.5919342041016	-541.7147216796875	1375.318481445312	-212.1298217773438	-615.8637084960938	1261.9169921875	-226.8823394775391	-644.179931640625	1060.694091796875	-223.5192260742188	-624.5687255859375	1053.320922851562	-141.3495788574219	-589.2438354492188	805.4156494140625	-262.558349609375	-658.5768432617188	803.3920288085938	-255.2907562255859	-657.2706298828125	955.69775390625	-230.2363891601562	-595.7802734375	646.8893432617188	-243.1047668457031	-663.939208984375	733.7003173828125	-242.6641998291016	-606.626708984375	726.7608032226562	-272.8248291015625	-302.9874877929688	1378.155395507812	1.178242564201355	-262.2472229003906	1310.764892578125	48.21092224121094	-211.4469146728516	1044.46875	47.15930557250977	-301.1640625	1032.682006835938	24.61606788635254	-151.5435485839844	885.3383178710938	-139.4192962646484	-115.5600738525391	847.79736328125	-83.19568634033203	-180.8659515380859	986.511474609375	16.79066848754883	-106.8346786499023	806.8875122070312	-195.0455932617188	-95.50518035888672	779.3457641601562	-132.1645660400391	-369.4174499511719	1591.367309570312	-33.74399185180664	-337.355224609375	1611.686157226562	-238.8920135498047	-271.2876586914062	1606.730590820312	-162.7438507080078	-482.2833251953125	1593.66650390625	-124.2052536010742	-260.4331970214844	928.8485717773438	-104.4438552856445	-444.1128234863281	947.1363525390625	-259.0812377929688	-474.6670532226562	501.5420227050781	-379.8934631347656	-500.5042114257812	627.6181640625	-346.18896484375	-632.8244018554688	101.4710388183594	-289.4750366210938	-560.6716918945312	295.49560546875	-347.6806945800781	-485.326904296875	53.87751007080078	-435.40087890625	-485.9358215332031	44.60799407958984	-353.5750122070312	-584.0466918945312	76.90264129638672	-401.7474060058594	-593.9840087890625	89.80297088623047	-224.5218505859375	-368.2901306152344	434.8060913085938	-87.7628173828125	-513.3433227539062	50.01065063476562	-56.14625549316406	-405.206298828125	318.359375	-108.7129821777344	-461.777099609375	42.70174026489258	-249.4644470214844	-526.209716796875	38.80382919311523	-223.0434722900391	-447.3564147949219	39.11072158813477	-133.7279205322266	-579.9262084960938	53.80376052856445	-38.26523208618164	-110.2086181640625	736.24365234375	-217.5956115722656	-566.24658203125	924.4692993164062	-203.9560546875	-287.5975646972656	682.0582275390625	-76.09693145751953	-297.6589965820312	893.959716796875	5.859931945800781	nan	nan	nan	nan	nan	nan	nan	nan	nan	nan	nan	nan	nan	nan	nan	nan	nan	nan	
249	2.48	-427.2397155761719	958.7181396484375	1.546022653579712	-530.94970703125	967.5829467773438	-76.73365783691406	-472.264892578125	1022.946960449219	-31.43819999694824	-329.7694091796875	1210.388427734375	-216.5322875976562	-479.093017578125	1143.565795898438	-25.84669876098633	-458.94287109375	1392.072387695312	-66.31166076660156	-357.4869995117188	1336.177734375	-182.9618682861328	-439.3407592773438	1251.09228515625	11.5692777633667	-545.654052734375	1358.884765625	-119.7160186767578	-535.9668579101562	1374.611694335938	-221.0723419189453	-610.2913818359375	1261.588623046875	-236.5000305175781	-639.5934448242188	1060.487182617188	-232.6648864746094	-621.727294921875	1053.676879882812	-150.0862731933594	-584.68701171875	804.9434814453125	-269.4896850585938	-654.1480102539062	803.023193359375	-263.4426879882812	-652.991943359375	955.4494018554688	-239.0570678710938	-592.46240234375	646.6522216796875	-250.1066741943359	-659.8340454101562	733.3948364257812	-250.7507629394531	-602.0485229492188	726.3355712890625	-279.8937683105469	-300.7734069824219	1377.583984375	-3.895181179046631	-260.5632934570312	1310.1142578125	43.56276321411133	-208.0245056152344	1044.042236328125	41.70238876342773	-297.4801940917969	1031.850219726562	18.61222648620605	-146.1709899902344	886.9620971679688	-145.9156494140625	-109.9990081787109	849.3181762695312	-89.84082794189453	-176.8743743896484	986.6171875	11.0397253036499	-100.5526428222656	809.3260498046875	-202.0112915039062	-89.100341796875	781.5077514648438	-139.2779235839844	-366.8350830078125	1590.658203125	-39.96621704101562	-331.7402648925781	1611.202514648438	-244.6248779296875	-266.8176574707031	1606.381713867188	-167.4839324951172	-478.2974853515625	1592.67822265625	-132.1628875732422	-255.7981262207031	929.2034912109375	-108.7649612426758	-437.53662109375	946.4139404296875	-266.1293640136719	-465.1585693359375	500.1004943847656	-387.1137084960938	-492.0987548828125	626.6829223632812	-353.4234313964844	-613.8574829101562	92.71098327636719	-319.4303588867188	-545.9931640625	291.1885375976562	-366.3422241210938	-458.3930358886719	55.92941284179688	-459.803955078125	-462.51220703125	43.34825134277344	-378.5737915039062	-559.186767578125	74.38328552246094	-430.0782165527344	-577.7747192382812	79.54782867431641	-253.3359222412109	-366.444091796875	434.3379211425781	-90.48362731933594	-513.3143920898438	50.11958312988281	-56.19436645507812	-403.9258728027344	317.7480773925781	-110.8705368041992	-461.8386535644531	42.52653503417969	-249.4701385498047	-526.2256469726562	38.6551628112793	-223.0538482666016	-447.3695068359375	39.09600067138672	-133.7355499267578	-579.9027709960938	54.17950439453125	-38.32162094116211	-103.1628341674805	738.8101806640625	-225.1172332763672	-560.870849609375	924.0275268554688	-213.8189544677734	-285.1036071777344	682.074951171875	-78.09728240966797	-297.0094604492188	893.4359741210938	1.538129091262817	nan	nan	nan	nan	nan	nan	nan	nan	nan	nan	nan	nan	nan	nan	nan	nan	nan	nan	
